<svg fill="none" height="193" viewBox="0 0 706 193" width="706" xmlns="http://www.w3.org/2000/svg"><g fill="#fff"><path d="m76.23 61.54c-4.42-6.44-15.08-13.48-28.96-13.48-26.76.01-47.27 23.94-47.27 52.5s20.51 52.49 47.26 52.49c13.88 0 24.54-7.04 28.96-13.47v11.26h27.55v-150.84h-27.54zm-23.13 66.38c-15.08 0-25.34-11.67-25.34-27.35 0-15.69 10.26-27.35 25.34-27.35s25.34 11.67 25.34 27.35-10.26 27.35-25.34 27.35z"/><path d="m164.69 48.0699c-30.57 0-52.9 22.73-52.9 52.4901 0 31.78 23.33 52.49 53.3 52.49 21.12 0 37.41-9.05 46.66-22.53l-20.51-15.29c-4.42 6.84-13.48 12.67-25.95 12.67-13.27 0-25.14-7.44-26.75-20.92h75.22c.4-4.22.4-7.0401.4-9.4501.01-32.57-23.12-49.46-49.47-49.46zm-25.14 40.22c2.61-12.27 14.08-17.5 24.34-17.5s20.31 5.63 22.73 17.5z"/><path d="m274.9 48.0699c-30.57 0-52.9 22.73-52.9 52.4901 0 31.78 23.33 52.49 53.3 52.49 21.12 0 37.41-9.05 46.66-22.53l-20.51-15.29c-4.42 6.84-13.48 12.67-25.95 12.67-13.27 0-25.14-7.44-26.75-20.92h75.22c.4-4.22.4-7.0401.4-9.4501.01-32.57-23.12-49.46-49.47-49.46zm-25.14 40.22c2.61-12.27 14.08-17.5 24.34-17.5s20.31 5.63 22.73 17.5z"/><path d="m388.34 48.0699c-13.88 0-24.54 7.04-29.16 13.48v-11.27h-27.55v142.6001h27.55v-53.3c4.63 6.44 15.29 13.47 29.16 13.47 26.75 0 47.26-23.93 47.26-52.49.01-28.5601-20.51-52.4901-47.26-52.4901zm-6.03 79.8501c-15.08 0-25.34-11.67-25.34-27.35 0-15.6901 10.26-27.3501 25.34-27.3501s25.34 11.67 25.34 27.3501c0 15.68-10.26 27.35-25.34 27.35z"/><path d="m471.2 0h-27.55v150.84h27.55z"/><path d="m555.43 61.5401c-4.42-6.44-15.08-13.48-28.96-13.48-26.75 0-47.26 23.93-47.26 52.4899 0 28.56 20.52 52.49 47.26 52.49 13.88 0 24.54-7.04 28.96-13.47v11.26h27.55v-100.5499h-27.55zm-23.13 66.3799c-15.08 0-25.34-11.67-25.34-27.35 0-15.6899 10.26-27.3499 25.34-27.3499s25.34 11.67 25.34 27.3499c0 15.68-10.26 27.35-25.34 27.35z"/><path d="m674.85 50.28-26.75 65.17-26.95-65.17h-30.17l42.24 94.93-21.12 47.67h29.97l63.15-142.6z"/></g></svg>