<?xml version="1.0" encoding="UTF-8"?> <svg xmlns="http://www.w3.org/2000/svg" width="167" height="78" viewBox="0 0 167 78" fill="none"> <g clip-path="url(#clip0_733_691)"> <path fill-rule="evenodd" clip-rule="evenodd" d="M27.3204 75.8764L43.3817 72.4117L66.0955 24.5007L59.6214 10.327L28.402 2.56688L2.98608 22.5321L8.61511 27.4378L22.3465 27.3748C22.3465 27.3748 24.0833 23.5322 27.6732 23.5322C31.263 23.5322 38.0589 23.5755 38.0589 23.5755L16.7369 66.884L27.3204 75.8764Z" fill="white" fill-opacity="0.25"></path> <path fill-rule="evenodd" clip-rule="evenodd" d="M62.1256 28.3591L63.9593 24.5007L59.5514 14.8389L30.8635 73.1086L39.6715 71.203L41.9471 70.7148L62.1256 28.3591ZM59.1482 71.014L43.8312 74.3212H43.7847L27.7311 77.7859H27.5179C27.3289 77.8045 27.1383 77.7953 26.9519 77.7584H26.9248H26.8976H26.8783H26.855H26.8317C26.5724 77.6887 26.3306 77.5639 26.1223 77.3922V77.3922L25.7346 77.0576L1.29178 56.6671C1.06383 56.4765 0.881774 56.2356 0.759494 55.9626C0.637215 55.6897 0.577945 55.392 0.586209 55.0923L1.05142 22.6738C1.05142 22.6266 1.05142 22.5794 1.05142 22.5321C1.04869 22.2285 1.11517 21.9283 1.24564 21.6551C1.37611 21.3819 1.56704 21.1431 1.8035 20.9572L27.2194 1.0117C27.5699 0.741969 28.0011 0.602946 28.4406 0.617986H28.553C28.6707 0.62807 28.7874 0.64782 28.9019 0.677043L59.974 8.3584C60.2687 8.41533 60.5465 8.54097 60.7853 8.72544C61.0241 8.9099 61.2175 9.14815 61.3502 9.42143L61.3774 9.47655L67.8554 23.7132V23.7447L74.7211 38.7964C74.8501 39.0818 74.9101 39.3944 74.8959 39.7081C74.8817 40.0218 74.7939 40.3275 74.6397 40.5996L60.4702 69.9746C60.3408 70.2414 60.1536 70.4749 59.9226 70.6576C59.6917 70.8404 59.4229 70.9676 59.1366 71.0298L59.1482 71.014ZM46.8357 69.6557L66.0605 29.1032L70.8366 39.5681L57.4308 67.3564L46.8357 69.6439V69.6557ZM4.8545 26.7448L7.35887 28.93C7.7366 29.2574 8.22368 29.4251 8.71961 29.3985L22.3541 29.3355C22.7215 29.3327 23.0806 29.2238 23.3895 29.0217C23.6984 28.8195 23.9443 28.5324 24.0986 28.1937V28.1937C24.0986 28.1937 25.3198 25.5007 27.6691 25.5007C30.5146 25.5007 33.0733 25.5007 34.9419 25.5007L16.0234 63.9114L4.45132 54.2379L4.83899 26.7448H4.8545ZM56.8028 11.6302L26.696 72.7897L19.1248 66.3761L39.7607 24.5007C39.9173 24.202 39.9954 23.8673 39.9876 23.529C39.9798 23.1907 39.8862 22.8602 39.7159 22.5693C39.5456 22.2785 39.3044 22.0371 39.0154 21.8685C38.7265 21.6999 38.3997 21.6098 38.0665 21.6069C38.0433 21.6069 29.1035 21.5557 27.673 21.5557C24.3312 21.5557 22.2455 23.9377 21.2415 25.4102L9.33213 25.4653L6.04078 22.599L28.8476 4.69686L56.8028 11.6302Z" fill="white"></path> <path fill-rule="evenodd" clip-rule="evenodd" d="M111.663 45.7061C111.47 46.4408 111.144 47.1325 110.701 47.7456C110.3 48.2858 109.783 48.7261 109.189 49.033C108.578 49.3432 107.903 49.4999 107.22 49.4897C106.678 49.491 106.138 49.4462 105.603 49.3559C105.148 49.2883 104.702 49.1735 104.27 49.0133V40.5997C104.921 39.661 105.669 38.7964 106.503 38.0208C107.096 37.4335 107.885 37.0946 108.713 37.072C109.196 37.0627 109.675 37.1764 110.104 37.4027C110.535 37.6513 110.89 38.0149 111.132 38.4539C111.443 39.0272 111.66 39.6482 111.775 40.2926C111.939 41.1869 112.014 42.0957 112 43.0052C112.011 43.917 111.897 44.826 111.663 45.7061V45.7061ZM114.958 35.7333C114.391 34.9158 113.638 34.2488 112.764 33.7884C111.777 33.3181 110.697 33.0854 109.608 33.1087C108.519 33.1319 107.449 33.4103 106.483 33.9223C105.553 34.4781 104.738 35.2122 104.084 36.0838L104.27 32.2923V25.9929H99.7146V51.978C100.83 52.3399 101.968 52.6215 103.122 52.8205C104.397 53.037 105.687 53.1424 106.98 53.1355C108.304 53.1471 109.622 52.9383 110.88 52.5174C112.039 52.1254 113.098 51.4773 113.981 50.6197C114.891 49.7167 115.592 48.6192 116.032 47.407C116.557 45.9379 116.808 44.3825 116.772 42.8202C116.787 41.4615 116.629 40.1065 116.303 38.7886C116.042 37.6953 115.586 36.6598 114.958 35.7333Z" fill="white"></path> <path fill-rule="evenodd" clip-rule="evenodd" d="M128.468 33.5246H118.443V37.1271H123.801V49.1866H117.792V52.789H133.938V49.1866H128.468V33.5246Z" fill="white"></path> <path fill-rule="evenodd" clip-rule="evenodd" d="M141.242 27.363L136.59 28.5953V33.5246H131.473V37.1271H136.567V46.5487C136.547 47.5666 136.69 48.581 136.989 49.5527C137.24 50.3479 137.69 51.063 138.296 51.6276C138.94 52.2001 139.706 52.6149 140.533 52.8402C141.584 53.124 142.67 53.2566 143.758 53.2339C144.55 53.2312 145.342 53.1747 146.127 53.0646C146.96 52.9544 147.79 52.8008 148.612 52.6118V48.9109C148.028 49.0763 147.382 49.2233 146.673 49.3519C145.952 49.4778 145.222 49.5397 144.491 49.5369C143.32 49.5369 142.486 49.2561 141.99 48.6944C141.494 48.1327 141.245 47.298 141.242 46.1904V37.135H148.608V33.5246H141.242V27.363Z" fill="white"></path> <path fill-rule="evenodd" clip-rule="evenodd" d="M166.654 45.1274C166.455 44.5318 166.12 43.9923 165.677 43.5525C165.147 43.0475 164.537 42.635 163.874 42.332C162.981 41.9183 162.057 41.5786 161.11 41.3162C160.141 41.0406 159.358 40.7808 158.784 40.5288C158.304 40.348 157.84 40.1227 157.4 39.8555C157.125 39.6987 156.897 39.4686 156.741 39.1902C156.621 38.9462 156.562 38.6755 156.571 38.4027C156.568 38.109 156.645 37.8202 156.795 37.569C156.945 37.3179 157.162 37.1143 157.42 36.9814C158.111 36.6101 158.887 36.4334 159.668 36.4696C160.616 36.4698 161.561 36.5422 162.498 36.6861C163.531 36.8718 164.547 37.1417 165.538 37.4932V33.7136C164.828 33.564 164.01 33.4262 163.091 33.2963C162.038 33.1622 160.978 33.0991 159.916 33.1073C158.695 33.0826 157.475 33.2337 156.295 33.5561C155.367 33.8078 154.491 34.228 153.71 34.7963C153.06 35.2764 152.529 35.9031 152.159 36.6271C151.812 37.3126 151.632 38.0729 151.636 38.8437C151.619 39.5642 151.736 40.2814 151.981 40.9579C152.209 41.5529 152.562 42.0902 153.016 42.5328C153.528 43.0224 154.118 43.4216 154.76 43.7139C155.554 44.0826 156.376 44.3842 157.218 44.6155C158.226 44.9069 159.04 45.1667 159.66 45.403C160.165 45.5795 160.651 45.8078 161.11 46.0841C161.398 46.2516 161.639 46.4899 161.812 46.777C161.935 47.0205 161.997 47.2908 161.994 47.5645C161.992 47.8729 161.909 48.1751 161.754 48.4402C161.598 48.7052 161.376 48.9234 161.11 49.0724C160.521 49.4661 159.626 49.6511 158.431 49.6511C156.098 49.6362 153.79 49.1601 151.636 48.2495V52.4544C152.681 52.7153 153.741 52.9086 154.811 53.0331C156.062 53.1728 157.32 53.2386 158.579 53.23C159.612 53.2314 160.643 53.1205 161.653 52.8993C162.6 52.6986 163.507 52.3407 164.34 51.8402C165.112 51.3684 165.764 50.7182 166.243 49.9425C166.743 49.0932 166.993 48.1164 166.964 47.1274C166.972 46.4478 166.867 45.7718 166.654 45.1274V45.1274Z" fill="white"></path> <path fill-rule="evenodd" clip-rule="evenodd" d="M79.3187 30.808H89.906L79.4078 52.789H84.9826L95.5932 30.3395V25.9692H77.2446L79.3187 30.808Z" fill="white"></path> <path fill-rule="evenodd" clip-rule="evenodd" d="M123.63 30.371C123.9 30.6451 124.22 30.8631 124.572 31.0127C124.94 31.1696 125.336 31.2499 125.735 31.2489C126.135 31.2522 126.531 31.1718 126.898 31.0127C127.25 30.862 127.57 30.6441 127.84 30.371C128.107 30.0975 128.319 29.7739 128.464 29.4182C128.761 28.6663 128.761 27.8274 128.464 27.0756C128.176 26.3507 127.619 25.7697 126.914 25.4574C126.546 25.2983 126.15 25.2179 125.751 25.2212C125.351 25.2202 124.956 25.3006 124.588 25.4574C124.237 25.6101 123.919 25.8316 123.653 26.1093C123.387 26.387 123.178 26.7154 123.037 27.0756C122.732 27.8258 122.732 28.668 123.037 29.4182C123.171 29.7722 123.373 30.0959 123.63 30.371V30.371Z" fill="white"></path> </g> <defs> <clipPath id="clip0_733_691"> <rect width="167" height="77.9333" fill="white"></rect> </clipPath> </defs> </svg> 