<svg xmlns="http://www.w3.org/2000/svg" viewBox="0 0 452.5 133.1"><style>.st0{fill:#008aff}</style><g><path id="XMLID_2580_" class="st0" d="M350 66.1c.4 21.5 14.5 35.5 34.3 35.1 7.9 0 15.3-2.5 21.1-6.2l.4 33.1c-6.2 2.9-13.2 4.5-21.5 5-38 .4-69-28.1-69-66.1-.4-26 13.6-46.7 34.7-57v56.1z"/><path id="XMLID_2579_" d="M452.5 66.1c.4 25.6-13.6 46.7-34.7 57l-.8-55.8c-.4-21.5-14.5-36-33.9-35.5-7.9 0-15.7 2.5-21.1 6.2l-.4-33.5c6.2-2.9 13.6-4.5 21.9-4.5 37.6-.4 68.1 28.1 69 66.1" fill="#ff8f00"/><path id="XMLID_2578_" class="st0" d="M178.1 19.4c0 8.3 6.6 15.3 15.3 15.3h33.1v76.4c0 9.9 7.9 18.2 18.2 18.2 9.9 0 18.6-8.3 18.6-18.6v-76h33.5c8.3 0 15.3-6.6 15.3-15.3 0-8.3-6.6-15.3-15.3-15.3H193.5c-8.4.4-15.4 7-15.4 15.3"/><path id="XMLID_3086_" class="st0" d="M140.5 58.7c0 15.3-12.8 28.1-28.1 28.1h-7.9V30.6h7.4c15.8 0 28.6 12.8 28.6 28.1zm-107.9 0c0-15.7 12.8-28.1 28.1-28.1h9.1v56.2h-9.1c-15.7.4-28.1-12.4-28.1-28.1zm85.2-54.6H54.5C24.3 4.1 0 28.5 0 58.6s24.4 54.5 54.5 54.5h15.3c.8 9.1 7.9 16.1 16.9 16.1 9.1 0 16.5-7 16.9-16.1h13.3c30.2 0 54.5-24.4 54.5-54.5 1.3-30.1-23.5-54.5-53.6-54.5z"/></g></svg>