<?xml version="1.0" encoding="UTF-8"?> <svg xmlns="http://www.w3.org/2000/svg" width="602" height="157" viewBox="0 0 602 157" fill="none"> <path d="M236.597 77.8326C236.237 67.7624 229.883 62.3674 222.331 62.3674C213.46 62.3674 206.267 67.7624 204.468 77.8326H236.597ZM222.451 53.1368C239.474 53.1368 248.586 65.8447 248.586 81.5493C248.586 83.108 248.226 86.3442 248.226 86.3442H203.989C204.708 99.2923 214.059 106.605 224.848 106.605C235.278 106.605 242.591 99.5317 242.591 99.5317L247.626 107.804C247.626 107.804 238.635 116.675 224.249 116.675C205.068 116.675 192 102.888 192 84.9061C192 65.6044 205.188 53.1368 222.451 53.1368Z" fill="white"></path> <path d="M257.334 63.9263H249.781V54.5752H257.334V52.5377C257.334 32.517 272.559 29.9999 280.232 29.9999C282.87 29.9999 284.668 30.359 284.668 30.359V40.3095C284.668 40.3095 283.469 40.0701 281.671 40.0701C277.115 40.0701 268.963 41.5082 268.963 52.7771V54.5752H283.349V63.9263H268.963V115.237H257.334V63.9263Z" fill="white"></path> <path d="M287.065 63.9263H279.511V54.5752H287.065V52.5377C287.065 32.517 302.29 29.9999 309.962 29.9999C312.6 29.9999 314.398 30.359 314.398 30.359V40.3095C314.398 40.3095 313.199 40.0701 311.401 40.0701C306.846 40.0701 298.693 41.5082 298.693 52.7771V54.5752H313.08V63.9263H298.693V115.237H287.065V63.9263Z" fill="white"></path> <path d="M356.236 77.8326C355.876 67.7624 349.523 62.3674 341.97 62.3674C333.098 62.3674 325.906 67.7624 324.107 77.8326H356.236ZM342.09 53.1368C359.114 53.1368 368.224 65.8447 368.224 81.5493C368.224 83.108 367.865 86.3442 367.865 86.3442H323.628C324.348 99.2923 333.699 106.605 344.488 106.605C354.917 106.605 362.231 99.5317 362.231 99.5317L367.265 107.804C367.265 107.804 358.275 116.675 343.889 116.675C324.707 116.675 311.64 102.888 311.64 84.9061C311.64 65.6044 324.827 53.1368 342.09 53.1368Z" fill="white"></path> <path d="M404.068 53.1371C411.38 53.1371 425.885 56.1338 425.885 66.4443V72.6781H415.336V69.3214C415.336 65.0053 408.502 63.0876 404.068 63.0876C392.198 63.0876 383.327 71.9582 383.327 84.7857C383.327 98.5726 393.398 106.365 404.666 106.365C416.056 106.365 423.489 97.9733 423.489 97.9733L428.523 106.245C428.523 106.245 419.892 116.675 403.828 116.675C384.766 116.675 371.459 103.128 371.459 84.9054C371.459 67.0436 384.527 53.1371 404.068 53.1371Z" fill="white"></path> <path d="M435.953 63.9263H428.041V54.5751H436.193V37.912H447.582V54.5751H462.088V63.9263H447.582V91.7394C447.582 103.847 455.974 105.406 460.41 105.406C462.088 105.406 463.167 105.166 463.167 105.166V115.476C463.167 115.476 461.609 115.715 459.091 115.715C451.419 115.715 435.953 113.318 435.953 93.0578V63.9263Z" fill="white"></path> <path d="M472.397 30.5991H482.826V42.7068H472.397V30.5991ZM472.157 67.1632C472.157 65.3651 471.198 64.5264 469.52 64.5264H464.604V54.575H475.994C481.388 54.575 483.666 56.8536 483.666 62.2478V102.648C483.666 104.447 484.625 105.286 486.302 105.286H491.218V115.236H479.829C474.435 115.236 472.157 112.959 472.157 107.564V67.1632Z" fill="white"></path> <path d="M492.656 66.9236C491.937 65.1255 490.858 64.5262 488.94 64.5262H487.741V54.5757H493.735C499.13 54.5757 501.168 55.8941 502.966 60.6898L516.033 95.5755C517.232 98.9322 518.191 103.488 518.191 103.488H518.431C518.431 103.488 519.39 98.9322 520.588 95.5755L533.536 60.6898C535.335 55.8941 537.492 54.5757 542.767 54.5757H548.402V64.5262H547.203C545.164 64.5262 543.966 65.1255 543.247 66.9236L524.785 115.236H511.359L492.656 66.9236Z" fill="white"></path> <path d="M589.161 77.8326C588.801 67.7624 582.447 62.3674 574.895 62.3674C566.023 62.3674 558.83 67.7624 557.032 77.8326H589.161ZM575.014 53.1368C592.037 53.1368 601.149 65.8447 601.149 81.5493C601.149 83.108 600.789 86.3442 600.789 86.3442H556.552C557.271 99.2923 566.623 106.605 577.412 106.605C587.842 106.605 595.154 99.5317 595.154 99.5317L600.19 107.804C600.19 107.804 591.199 116.675 576.813 116.675C557.631 116.675 544.564 102.888 544.564 84.9061C544.564 65.6044 557.751 53.1368 575.014 53.1368Z" fill="white"></path> <path d="M23.4286 78.3287L111.875 41.6933C128.157 34.9491 135.889 16.2826 129.144 4.48227e-05L40.6987 36.6354C24.4162 43.3797 16.6843 62.0468 23.4286 78.3287Z" fill="#C11718"></path> <path d="M90.8831 102.198C107.165 95.4541 114.897 76.7876 108.153 60.505L19.7069 97.1404C3.42497 103.885 -4.30686 122.552 2.4374 138.834L90.8831 102.198Z" fill="#E03713"></path> <path d="M165.78 88.4455L47.8523 137.293C54.5972 153.575 73.2637 161.307 89.5456 154.563L148.51 130.139C164.793 123.395 172.524 104.728 165.78 88.4455Z" fill="#ED6A25"></path> </svg> 