<svg width="273" height="44" viewBox="0 0 273 44" fill="none" xmlns="http://www.w3.org/2000/svg"><path d="M20.145 5.67V0l14.12 7.485v6.123L20.144 5.67z" fill="#375D91"/><path d="M20.145 38.33V44l20.137-10.886-6.018-2.722-14.12 7.938z" fill="#ADD3FF"/><path d="M20.145 38.33V22l14.119 8.392-14.12 7.938z" fill="#E4EFFF"/><path d="M34.256 30.392V7.485l6.018 3.402v22.226l-6.018-2.721z" fill="#C4D7ED"/><path d="M20.145 38.33V44l-14.12-7.484v-6.124l14.12 7.938z" fill="#89ABC9"/><path d="M6.025 30.392V13.608L20.145 22v16.33l-14.12-7.938z" fill="#4474A1"/><path d="M20.145 22V5.67l14.119 7.938V30.39l-14.12-8.392z" fill="#416E99"/><path d="M0 33.114l6.018 3.402V13.609L0 10.887v22.227z" fill="#1D3C63"/><path d="M20.145 22V5.67l-14.12 7.938 14.12 8.391z" fill="#183152"/><path d="M6.018 13.608L0 10.887 20.137 0v5.67L6.018 13.608z" fill="#214370"/><path d="M141.145 13.54v7.278c-.969-1.773-2.789-2.925-5.081-2.925-3.379 0-6.121 2.602-6.121 6.01 0 3.409 2.742 6.01 6.121 6.01 2.292 0 4.112-1.15 5.081-2.924v2.671h1.181V13.54h-1.181zm-5.01 15.268c-2.812 0-5.01-2.164-5.01-4.904 0-2.74 2.198-4.905 5.01-4.905s5.01 2.164 5.01 4.905c0 2.74-2.198 4.904-5.01 4.904zm15.137-10.915c-3.616 0-6.121 2.625-6.121 6.01 0 3.478 2.576 6.01 6.215 6.01 2.34 0 4.183-1.035 5.152-2.601l-1.04-.6c-.685 1.221-2.15 2.096-4.088 2.096-2.694 0-4.727-1.704-5.01-4.306h10.705c0-.184.024-.368.024-.552 0-3.155-2.245-6.057-5.837-6.057zm0 1.105c2.315 0 4.348 1.566 4.608 4.376h-9.5c.236-2.556 2.198-4.375 4.892-4.375zm16.81-.852l-4.467 10.317-4.443-10.317h-1.276l5.01 11.514h1.442l4.986-11.514h-1.252zm8.252-.253c-3.616 0-6.121 2.625-6.121 6.01 0 3.478 2.576 6.01 6.215 6.01 2.34 0 4.183-1.035 5.152-2.601l-1.04-.6c-.685 1.221-2.15 2.096-4.088 2.096-2.694 0-4.726-1.704-5.01-4.306h10.705c0-.184.024-.368.024-.552 0-3.155-2.245-6.057-5.837-6.057zm0 1.105c2.316 0 4.348 1.566 4.608 4.376h-9.5c.237-2.556 2.198-4.375 4.892-4.375zm8.599 10.662h1.181V12.85h-1.181v16.81zm10.235.254c3.426 0 6.191-2.602 6.191-6.01 0-3.409-2.765-6.01-6.191-6.01-3.451 0-6.216 2.601-6.216 6.01 0 3.408 2.765 6.01 6.216 6.01zm0-1.106c-2.813 0-5.01-2.164-5.01-4.904 0-2.74 2.197-4.905 5.01-4.905 2.812 0 4.986 2.164 4.986 4.905 0 2.74-2.174 4.904-4.986 4.904zm15.297-10.915c-2.292 0-4.112 1.152-5.081 2.925v-2.672h-1.181v16.12h1.181v-7.277c.969 1.773 2.789 2.925 5.081 2.925 3.379 0 6.12-2.602 6.12-6.01 0-3.409-2.741-6.01-6.12-6.01zm-.071 10.915c-2.812 0-5.01-2.164-5.01-4.904 0-2.74 2.198-4.905 5.01-4.905s5.01 2.164 5.01 4.905c0 2.74-2.198 4.904-5.01 4.904zm21.659-10.915c-1.583 0-3.096.737-3.946 2.349-.615-1.52-1.962-2.349-3.687-2.349-1.512 0-2.93.645-3.805 2.234v-1.98h-1.181V29.66h1.181v-6.424c0-2.948 1.725-4.238 3.663-4.238 1.82 0 3.025 1.175 3.025 3.363v7.3h1.182v-6.425c0-2.948 1.559-4.238 3.544-4.238 1.844 0 3.143 1.175 3.143 3.363v7.3h1.182v-7.3c0-2.879-1.796-4.468-4.301-4.468zm12.96 0c-3.616 0-6.12 2.625-6.12 6.01 0 3.478 2.575 6.01 6.215 6.01 2.339 0 4.182-1.035 5.151-2.601l-1.039-.6c-.686 1.221-2.151 2.096-4.089 2.096-2.694 0-4.726-1.704-5.01-4.306h10.705c0-.184.024-.368.024-.552 0-3.155-2.245-6.057-5.837-6.057zm0 1.105c2.316 0 4.348 1.566 4.608 4.376h-9.5c.237-2.556 2.198-4.375 4.892-4.375zm14.01-1.105c-1.819 0-3.332.737-4.23 2.441v-2.188h-1.181V29.66h1.181v-6.079c0-3.109 1.82-4.582 4.136-4.582 2.221 0 3.474 1.381 3.474 3.5v7.161h1.205V22.5c0-2.787-1.772-4.606-4.585-4.606zM273 19.275v-1.128h-3.521v-3.224l-1.205.345v2.878h-2.599v1.129h2.599v7.484c0 2.625 1.631 3.362 4.726 2.901v-1.036c-2.41.207-3.521.161-3.521-1.865v-7.484H273z" fill="#88898B"/><path d="M76.65 21.778h-8.276v1.16h7.003c-.26 3.038-2.688 5.473-6.697 5.473-4.433 0-7.427-3.2-7.427-7.19 0-3.988 2.994-7.188 7.333-7.188 2.594 0 4.905 1.345 5.99 3.386l1.108-.65c-1.368-2.342-4.032-3.919-7.098-3.919-5.023 0-8.583 3.734-8.583 8.372s3.56 8.371 8.677 8.371c4.929 0 7.97-3.27 7.97-7.189v-.626zm8.202-4.29c-3.607 0-6.107 2.644-6.107 6.053 0 3.502 2.57 6.052 6.202 6.052 2.334 0 4.173-1.043 5.14-2.62l-1.037-.603c-.684 1.23-2.146 2.11-4.08 2.11-2.688 0-4.716-1.716-4.999-4.336h10.682c0-.186.024-.371.024-.557 0-3.177-2.24-6.099-5.825-6.099zm0 1.113c2.311 0 4.34 1.577 4.598 4.406h-9.479c.236-2.574 2.193-4.406 4.881-4.406zm21.172-1.113c-1.58 0-3.089.742-3.938 2.366-.613-1.531-1.957-2.366-3.678-2.366-1.51 0-2.924.65-3.797 2.25v-1.995h-1.179v11.595h1.18v-6.47c0-2.968 1.72-4.267 3.654-4.267 1.816 0 3.019 1.183 3.019 3.386v7.351h1.179v-6.47c0-2.968 1.556-4.267 3.537-4.267 1.839 0 3.136 1.183 3.136 3.386v7.351h1.179v-7.351c0-2.899-1.792-4.499-4.292-4.499zm8.428 3.293c0-1.391 1.297-2.18 2.83-2.18 1.297 0 2.523.557 3.018 1.763l.99-.557c-.636-1.414-2.098-2.319-4.008-2.319-2.405 0-4.009 1.461-4.009 3.293 0 4.174 7.145 2.366 7.145 5.52 0 1.46-1.391 2.18-3.042 2.18-1.768 0-3.042-.79-3.466-2.042l-1.014.58c.566 1.485 2.122 2.574 4.48 2.574 2.523 0 4.221-1.391 4.221-3.293 0-4.243-7.145-2.411-7.145-5.519z" fill="#214370"/></svg>